<svg width="12" height="16" viewBox="0 0 12 16" fill="none" xmlns="http://www.w3.org/2000/svg">
<path d="M10.5469 0.875C10.7227 0.875 10.8984 0.962891 11.0449 1.08008C11.1621 1.22656 11.25 1.40234 11.25 1.57812V2.04688C11.25 2.25195 11.1621 2.42773 11.0449 2.54492C10.8984 2.69141 10.7227 2.75 10.5469 2.75C10.5469 4.06836 10.1953 5.24023 9.55078 6.29492C8.87695 7.34961 8.02734 8.02344 7.00195 8.375C8.02734 8.72656 8.87695 9.42969 9.55078 10.4844C10.1953 11.5391 10.5469 12.7109 10.5469 14C10.7227 14 10.8984 14.0879 11.0449 14.2051C11.1621 14.3516 11.25 14.5273 11.25 14.7031V15.1719C11.25 15.377 11.1621 15.5527 11.0449 15.6699C10.8984 15.8164 10.7227 15.875 10.5469 15.875H0.703125C0.498047 15.875 0.322266 15.8164 0.205078 15.6699C0.0585938 15.5527 0 15.377 0 15.1719V14.7031C0 14.5273 0.0585938 14.3516 0.205078 14.2051C0.322266 14.0879 0.498047 14 0.703125 14C0.703125 12.7109 1.02539 11.5391 1.69922 10.4844C2.34375 9.42969 3.19336 8.72656 4.24805 8.375C3.19336 8.02344 2.34375 7.34961 1.69922 6.29492C1.02539 5.24023 0.703125 4.06836 0.703125 2.75C0.498047 2.75 0.322266 2.69141 0.205078 2.54492C0.0585938 2.42773 0 2.25195 0 2.04688V1.57812C0 1.40234 0.0585938 1.22656 0.205078 1.08008C0.322266 0.962891 0.498047 0.875 0.703125 0.875H10.5469ZM8.34961 12.125C8.08594 11.4219 7.70508 10.8652 7.23633 10.4258C6.73828 10.0156 6.21094 9.78125 5.625 9.78125C5.03906 9.78125 4.48242 10.0156 4.01367 10.4258C3.51562 10.8652 3.13477 11.4219 2.90039 12.125H8.34961ZM8.34961 4.625C8.55469 4.03906 8.67188 3.42383 8.67188 2.75H2.57812C2.57812 3.42383 2.66602 4.03906 2.90039 4.625H8.34961Z" fill="#DA251D"/>
</svg>
