<svg width="15" height="15" viewBox="0 0 15 15" fill="none" xmlns="http://www.w3.org/2000/svg">
<path d="M14.7656 7.375C14.7656 6.08594 14.4141 4.85547 13.7695 3.74219C13.125 2.62891 12.2461 1.75 11.1328 1.10547C10.0195 0.460938 8.78906 0.109375 7.5 0.109375C6.18164 0.109375 4.98047 0.460938 3.86719 1.10547C2.75391 1.75 1.8457 2.62891 1.20117 3.74219C0.556641 4.85547 0.234375 6.08594 0.234375 7.375C0.234375 8.69336 0.556641 9.89453 1.20117 11.0078C1.8457 12.1211 2.75391 13.0293 3.86719 13.6738C4.98047 14.3184 6.18164 14.6406 7.5 14.6406C8.78906 14.6406 10.0195 14.3184 11.1328 13.6738C12.2461 13.0293 13.125 12.1211 13.7695 11.0078C14.4141 9.89453 14.7656 8.69336 14.7656 7.375ZM6.65039 11.2129C6.5625 11.3301 6.44531 11.3594 6.32812 11.3594C6.18164 11.3594 6.06445 11.3301 6.00586 11.2129L2.95898 8.16602C2.8418 8.10742 2.8125 7.99023 2.8125 7.84375C2.8125 7.72656 2.8418 7.60938 2.95898 7.52148L3.60352 6.84766C3.69141 6.75977 3.80859 6.70117 3.92578 6.70117C4.04297 6.70117 4.16016 6.75977 4.27734 6.84766L6.32812 8.89844L10.7227 4.50391C10.8105 4.41602 10.9277 4.35742 11.0449 4.35742C11.1621 4.35742 11.2793 4.41602 11.3965 4.50391L12.041 5.17773C12.1289 5.26562 12.1875 5.38281 12.1875 5.5C12.1875 5.64648 12.1289 5.76367 12.041 5.82227L6.65039 11.2129Z" fill="#27AE60"/>
</svg>
