<svg width="21" height="19" viewBox="0 0 21 19" fill="none" xmlns="http://www.w3.org/2000/svg">
<path d="M19.7812 2.5C20.0273 2.5 20.2383 2.60547 20.4141 2.81641C20.5898 3.02734 20.6602 3.27344 20.5898 3.51953L19.0078 10.832C18.9375 11.043 18.832 11.1836 18.6914 11.3242C18.5508 11.4648 18.375 11.5 18.1992 11.5H7.19531L7.54688 13.1875H17.4609C17.707 13.1875 17.918 13.293 18.0938 13.5039C18.2695 13.7148 18.3398 13.9609 18.2695 14.207L18.2344 14.3828C18.6914 14.8398 18.9375 15.3672 18.9375 16C18.9375 16.6328 18.6914 17.1953 18.2695 17.6172C17.8477 18.0391 17.3203 18.25 16.6875 18.25C16.0547 18.25 15.4922 18.0391 15.0703 17.6172C14.6484 17.1953 14.4375 16.6328 14.4375 16C14.4375 15.6133 14.543 15.2266 14.7539 14.875H9.62109C9.83203 15.2266 9.9375 15.6133 9.9375 16C9.9375 16.6328 9.69141 17.1953 9.26953 17.6172C8.84766 18.0391 8.32031 18.25 7.6875 18.25C7.05469 18.25 6.49219 18.0391 6.07031 17.6172C5.64844 17.1953 5.4375 16.668 5.4375 16.0352C5.4375 15.4023 5.64844 14.875 6.07031 14.4531L3.60938 1.9375H0.796875C0.65625 1.9375 0.550781 1.90234 0.480469 1.83203C0.410156 1.76172 0.375 1.65625 0.375 1.51562V0.671875C0.375 0.566406 0.410156 0.460938 0.480469 0.390625C0.550781 0.320312 0.65625 0.25 0.796875 0.25H4.3125C4.52344 0.25 4.69922 0.320312 4.83984 0.460938C4.98047 0.601562 5.08594 0.742188 5.15625 0.917969L5.4375 2.5H19.7812ZM7.6875 16.8438C7.89844 16.8438 8.10938 16.7734 8.28516 16.5977C8.42578 16.457 8.53125 16.2461 8.53125 16C8.53125 15.7891 8.42578 15.5781 8.28516 15.4023C8.10938 15.2617 7.89844 15.1562 7.6875 15.1562C7.44141 15.1562 7.23047 15.2617 7.08984 15.4023C6.91406 15.5781 6.84375 15.7891 6.84375 16C6.84375 16.2461 6.91406 16.457 7.08984 16.5977C7.23047 16.7734 7.44141 16.8438 7.6875 16.8438ZM16.6875 16.8438C16.8984 16.8438 17.1094 16.7734 17.2852 16.5977C17.4258 16.457 17.5312 16.2461 17.5312 16C17.5312 15.7891 17.4258 15.5781 17.2852 15.4023C17.1094 15.2617 16.8984 15.1562 16.6875 15.1562C16.4414 15.1562 16.2305 15.2617 16.0898 15.4023C15.9141 15.5781 15.8438 15.7891 15.8438 16C15.8438 16.2461 15.9141 16.457 16.0898 16.5977C16.2305 16.7734 16.4414 16.8438 16.6875 16.8438ZM17.4961 9.8125L18.7266 4.1875H5.78906L6.87891 9.8125H17.4961Z" fill="#4CAF50"/>
</svg>
