<svg width="19" height="16" viewBox="0 0 19 16" fill="none" xmlns="http://www.w3.org/2000/svg">
<path d="M17.7499 2C17.9686 2 18.1561 2.09375 18.3124 2.28125C18.4686 2.46875 18.5311 2.6875 18.4686 2.90625L17.0624 9.40625C16.9999 9.59375 16.9061 9.71875 16.7811 9.84375C16.6561 9.96875 16.4999 10 16.3436 10H6.5624L6.8749 11.5H15.6874C15.9061 11.5 16.0936 11.5938 16.2499 11.7812C16.4061 11.9688 16.4686 12.1875 16.4061 12.4062L16.3749 12.5625C16.7811 12.9688 16.9999 13.4375 16.9999 14C16.9999 14.5625 16.7811 15.0625 16.4061 15.4375C16.0311 15.8125 15.5624 16 14.9999 16C14.4374 16 13.9374 15.8125 13.5624 15.4375C13.1874 15.0625 12.9999 14.5625 12.9999 14C12.9999 13.6562 13.0936 13.3125 13.2811 13H8.71865C8.90615 13.3125 8.9999 13.6562 8.9999 14C8.9999 14.5625 8.78115 15.0625 8.40615 15.4375C8.03115 15.8125 7.5624 16 6.9999 16C6.4374 16 5.9374 15.8125 5.5624 15.4375C5.1874 15.0625 4.9999 14.5938 4.9999 14.0312C4.9999 13.4688 5.1874 13 5.5624 12.625L3.3749 1.5H0.874897C0.749897 1.5 0.656147 1.46875 0.593647 1.40625C0.531147 1.34375 0.499897 1.25 0.499897 1.125V0.375C0.499897 0.28125 0.531147 0.1875 0.593647 0.125C0.656147 0.0625 0.749897 0 0.874897 0H3.9999C4.1874 0 4.34365 0.0625 4.46865 0.1875C4.59365 0.3125 4.6874 0.4375 4.7499 0.59375L4.9999 2H17.7499ZM6.9999 14.75C7.1874 14.75 7.3749 14.6875 7.53115 14.5312C7.65615 14.4062 7.7499 14.2188 7.7499 14C7.7499 13.8125 7.65615 13.625 7.53115 13.4688C7.3749 13.3438 7.1874 13.25 6.9999 13.25C6.78115 13.25 6.59365 13.3438 6.46865 13.4688C6.3124 13.625 6.2499 13.8125 6.2499 14C6.2499 14.2188 6.3124 14.4062 6.46865 14.5312C6.59365 14.6875 6.78115 14.75 6.9999 14.75ZM14.9999 14.75C15.1874 14.75 15.3749 14.6875 15.5311 14.5312C15.6561 14.4062 15.7499 14.2188 15.7499 14C15.7499 13.8125 15.6561 13.625 15.5311 13.4688C15.3749 13.3438 15.1874 13.25 14.9999 13.25C14.7811 13.25 14.5936 13.3438 14.4686 13.4688C14.3124 13.625 14.2499 13.8125 14.2499 14C14.2499 14.2188 14.3124 14.4062 14.4686 14.5312C14.5936 14.6875 14.7811 14.75 14.9999 14.75ZM15.7186 8.5L16.8124 3.5H5.3124L6.28115 8.5H15.7186Z" fill="white"/>
</svg>
