<svg width="18" height="15" viewBox="0 0 18 15" fill="none" xmlns="http://www.w3.org/2000/svg">
<path d="M7 9.0625C7 9.47266 6.83594 9.82812 6.53516 10.1562C6.20703 10.4844 5.79688 10.7578 5.25 10.9492C4.70312 11.168 4.12891 11.25 3.5 11.25C2.84375 11.25 2.26953 11.168 1.72266 10.9492C1.17578 10.7578 0.765625 10.4844 0.464844 10.1562C0.136719 9.82812 0 9.47266 0 9.0625V9.03516C0 8.87109 0.0273438 8.70703 0.136719 8.48828C0.21875 8.29688 0.519531 7.66797 1.06641 6.62891L2.32422 4.08594C2.43359 3.86719 2.59766 3.70312 2.81641 3.56641C3.03516 3.45703 3.25391 3.375 3.5 3.375C3.71875 3.375 3.96484 3.45703 4.18359 3.56641C4.40234 3.70312 4.56641 3.86719 4.67578 4.08594L5.90625 6.54688C6.45312 7.64062 6.75391 8.29688 6.86328 8.51562C6.94531 8.73438 7 8.89844 7 9.03516V9.0625ZM3.5 4.6875L1.53125 8.625H5.46875L3.5 4.6875ZM14.4922 5.34375C14.4375 5.48047 14.3828 5.5625 14.2734 5.61719C14.1641 5.67188 14.0547 5.67188 13.9453 5.61719L10.3359 4.41406C10.0625 4.71484 9.76172 4.90625 9.40625 5.01562V14.3125C9.40625 14.4492 9.35156 14.5586 9.26953 14.6406C9.1875 14.7227 9.07812 14.75 8.96875 14.75H3.0625C2.92578 14.75 2.81641 14.7227 2.73438 14.6406C2.65234 14.5586 2.625 14.4492 2.625 14.3125V13.875C2.625 13.7656 2.65234 13.6562 2.73438 13.5742C2.81641 13.4922 2.92578 13.4375 3.0625 13.4375H8.09375V5.01562C7.68359 4.90625 7.32812 4.66016 7.05469 4.33203C6.78125 4.00391 6.61719 3.59375 6.58984 3.15625L3.14453 2.00781C3.03516 1.98047 2.95312 1.89844 2.89844 1.78906C2.84375 1.67969 2.81641 1.57031 2.87109 1.46094L3.00781 1.05078C3.03516 0.941406 3.11719 0.859375 3.22656 0.804688C3.33594 0.75 3.44531 0.75 3.55469 0.777344L6.86328 1.87109C7.02734 1.54297 7.30078 1.26953 7.62891 1.05078C7.95703 0.859375 8.33984 0.75 8.75 0.75C9.35156 0.75 9.84375 0.96875 10.2812 1.40625C10.7188 1.84375 10.9375 2.33594 10.9375 2.9375L10.9102 3.23828L14.3555 4.38672C14.4648 4.44141 14.5469 4.49609 14.6016 4.60547C14.6562 4.71484 14.6562 4.82422 14.6289 4.93359L14.4922 5.34375ZM8.75 3.8125C8.96875 3.8125 9.1875 3.73047 9.35156 3.56641C9.51562 3.40234 9.625 3.18359 9.625 2.9375C9.625 2.71875 9.51562 2.5 9.35156 2.33594C9.1875 2.17188 8.96875 2.0625 8.75 2.0625C8.50391 2.0625 8.28516 2.17188 8.12109 2.33594C7.95703 2.5 7.875 2.71875 7.875 2.9375C7.875 3.18359 7.95703 3.40234 8.12109 3.56641C8.28516 3.73047 8.50391 3.8125 8.75 3.8125ZM17.5 12.5625C17.5 12.9727 17.3359 13.3281 17.0352 13.6562C16.707 13.9844 16.2969 14.2578 15.75 14.4492C15.2031 14.668 14.6289 14.75 14 14.75C13.3438 14.75 12.7695 14.668 12.2227 14.4492C11.6758 14.2578 11.2656 13.9844 10.9648 13.6562C10.6367 13.3281 10.5 12.9727 10.5 12.5625V12.5352C10.5 12.3711 10.5273 12.207 10.6367 11.9883C10.7188 11.7969 11.0195 11.168 11.5664 10.1289L12.8242 7.58594C12.9336 7.36719 13.0977 7.20312 13.3164 7.06641C13.5352 6.95703 13.7539 6.875 14 6.875C14.2188 6.875 14.4648 6.95703 14.6836 7.06641C14.9023 7.20312 15.0664 7.36719 15.1758 7.58594L16.4062 10.0469C16.9531 11.1406 17.2539 11.7969 17.3633 12.0156C17.4453 12.2344 17.5 12.3984 17.5 12.5352V12.5625ZM12.0312 12.125H15.9688L14 8.1875L13.0156 10.1562C12.4141 11.3594 12.0859 12.0156 12.0312 12.125Z" fill="#008ACE"/>
</svg>
