<svg width="30" height="18" viewBox="0 0 30 18" fill="none" xmlns="http://www.w3.org/2000/svg">
<path d="M29.7025 8.60922L27.9715 7.60417L26.9827 3.37903C26.7194 2.25444 25.7289 1.46905 24.574 1.46905H19.6V0.679965C19.6 0.349906 19.3324 0.0823669 19.0024 0.0823669H0.597598C0.267598 0.0823669 0 0.349906 0 0.679965V14.9248C0 15.2548 0.267598 15.5224 0.597598 15.5224H2.51824C2.79598 16.8872 4.00535 17.9175 5.45092 17.9175C6.89648 17.9175 8.10592 16.8872 8.38365 15.5224H20.4819V15.5224C20.7596 16.8872 21.969 17.9175 23.4145 17.9175C24.8601 17.9175 26.0695 16.8872 26.3473 15.5224H29.4025C29.7325 15.5224 30.0001 15.2549 30.0001 14.9248V9.12602C30 8.91309 29.8867 8.71622 29.7025 8.60922ZM5.45092 16.7224C4.4598 16.7224 3.65344 15.916 3.65344 14.9249C3.65344 13.9338 4.4598 13.1273 5.45092 13.1273C6.44209 13.1273 7.24846 13.9337 7.24846 14.9249C7.24846 15.916 6.44209 16.7224 5.45092 16.7224ZM18.4048 12.1842H13.0146C12.6846 12.1842 12.417 12.4517 12.417 12.7818C12.417 13.1119 12.6846 13.3794 13.0146 13.3794H18.4048V14.3272H8.38365C8.10592 12.9624 6.89648 11.9321 5.45092 11.9321C4.00535 11.9321 2.79598 12.9623 2.51824 14.3272H1.1952V11.2364H18.4048V12.1842ZM18.4048 2.0667V10.0412H1.1952V1.27762H18.4048V2.0667ZM23.0667 2.66436H24.5742C25.1711 2.6643 25.683 3.07024 25.8189 3.65143L26.6948 7.39393H23.0667V2.66436H23.0667ZM23.4145 16.7224C22.4637 16.7224 21.6833 15.9801 21.6214 15.0446C21.6294 15.0059 21.6335 14.9659 21.6335 14.9249C21.6335 14.8839 21.6293 14.8438 21.6214 14.8052C21.6833 13.8697 22.4637 13.1273 23.4145 13.1273C24.4057 13.1273 25.2121 13.9337 25.2121 14.9249C25.2121 15.916 24.4057 16.7224 23.4145 16.7224ZM28.8048 11.4909H27.6679V10.8583H28.8048V11.4909ZM28.8048 9.66309H27.0703C26.7403 9.66309 26.4727 9.93063 26.4727 10.2607V12.0885C26.4727 12.4186 26.7403 12.6861 27.0703 12.6861H28.8048V14.3272H26.3473C26.0695 12.9624 24.8601 11.9321 23.4145 11.9321C21.969 11.9321 20.7596 12.9623 20.4819 14.3272H19.6V2.6643H21.8715V7.99153C21.8715 8.32159 22.1391 8.58913 22.4691 8.58913H27.2875L28.8047 9.4702V9.66309H28.8048Z" fill="#717374"/>
</svg>
