<svg width="30" height="24" viewBox="0 0 30 24" fill="none" xmlns="http://www.w3.org/2000/svg">
<path d="M28.4994 8.35051H23.5532V2.37559C23.5532 1.54812 22.88 0.875 22.0526 0.875H1.50059C0.673184 0.874883 0 1.54812 0 2.37553V14.1489C0 14.9764 0.673184 15.6495 1.50059 15.6495H6.44678V21.6244C6.44678 22.4519 7.11996 23.125 7.94736 23.125H28.4994C29.3269 23.125 30 22.4518 30 21.6244V9.8511C30 9.02363 29.3268 8.35051 28.4994 8.35051ZM1.50059 14.4544C1.33219 14.4544 1.1952 14.3173 1.1952 14.1489V2.37553C1.1952 2.20713 1.33219 2.07014 1.50059 2.07014H22.0526C22.221 2.07014 22.358 2.20713 22.358 2.37553V14.1489C22.358 14.3173 22.221 14.4543 22.0526 14.4543H1.50059V14.4544ZM28.8048 21.6245C28.8048 21.7929 28.6678 21.9299 28.4994 21.9299H7.94736C7.77896 21.9299 7.64197 21.7929 7.64197 21.6245V20.8619H28.8047V21.6245H28.8048ZM28.8048 19.6667H7.64197V17.8443H28.8047V19.6667H28.8048ZM28.8048 16.649H7.64197V15.6496H22.0526C22.8801 15.6496 23.5532 14.9764 23.5532 14.149V9.54576H28.4994C28.6678 9.54576 28.8048 9.68276 28.8048 9.85115V16.649Z" fill="#717374"/>
</svg>
