<svg width="16" height="16" viewBox="0 0 16 16" fill="none" xmlns="http://www.w3.org/2000/svg">
<g clip-path="url(#clip0)">
<path d="M0.189037 0.189549C0.441443 -0.0628574 0.850662 -0.0628574 1.10307 0.189549L15.8105 14.8969C16.0629 15.1493 16.0629 15.5585 15.8105 15.8109C15.6843 15.9372 15.5188 16.0002 15.3534 16.0002C15.188 16.0002 15.0226 15.9372 14.8964 15.8109L0.189037 1.10355C-0.0633373 0.851174 -0.0633373 0.441955 0.189037 0.189549Z" fill="#2A2A32"/>
<path d="M0.189319 14.8969L14.8967 0.189549C15.1491 -0.0628574 15.5583 -0.0628574 15.8107 0.189549C16.0631 0.441924 16.0631 0.851143 15.8107 1.10355L1.10332 15.8109C0.977131 15.9371 0.811693 16.0002 0.646287 16.0002C0.480881 16.0002 0.315443 15.9371 0.189287 15.811C-0.0630569 15.5585 -0.0630569 15.1493 0.189319 14.8969Z" fill="#2A2A32"/>
</g>
<defs>
<clipPath id="clip0">
<rect width="16" height="16" fill="white" transform="matrix(-1 0 0 1 16 0)"/>
</clipPath>
</defs>
</svg>
